<svg
 xmlns="http://www.w3.org/2000/svg"
 xmlns:xlink="http://www.w3.org/1999/xlink"
 width="1734px" height="1160px">
<path fill-rule="evenodd"  fill="rgb(0, 0, 0)"
 d="M0.0,2.0 C100.656,2.0 201.343,2.0 301.999,2.0 C411.940,1.990 517.315,0.961 600.999,26.0 C671.969,47.234 734.191,76.602 787.999,115.0 C805.331,129.665 822.668,144.334 839.999,158.999 C840.333,158.999 840.666,158.999 840.999,158.999 C840.999,106.671 840.999,54.328 840.999,2.0 C977.319,2.0 1113.680,2.0 1250.0,2.0 C1326.3,1.994 1413.964,-4.820 1476.999,10.999 C1533.735,25.239 1577.947,47.687 1616.999,79.0 C1681.664,130.848 1733.911,252.954 1701.0,371.999 C1682.835,437.701 1648.134,486.201 1598.999,520.999 C1575.392,537.719 1545.364,557.189 1509.999,560.999 C1509.999,561.333 1509.999,561.666 1509.999,561.999 C1620.408,576.836 1694.66,672.967 1722.999,771.0 C1756.19,882.874 1704.815,1022.537 1645.0,1070.999 C1603.774,1104.400 1561.168,1131.601 1500.999,1146.999 C1434.640,1163.983 1342.604,1158.1 1260.999,1158.0 C1121.14,1158.0 980.986,1158.0 840.999,1158.0 C840.999,1106.5 840.999,1053.994 840.999,1001.999 C821.2,1018.331 800.998,1034.668 780.999,1051.0 C729.847,1087.48 669.57,1114.214 601.999,1134.0 C518.763,1158.558 415.83,1157.996 306.0,1158.0 C204.10,1158.0 101.989,1158.0 0.0,1158.0 C0.0,772.705 0.0,387.294 0.0,2.0 ZM173.0,155.0 C173.0,438.304 173.0,721.694 173.0,1004.999 C237.660,1004.999 302.339,1004.999 366.999,1004.999 C400.996,1004.333 435.3,1003.666 468.999,1003.0 C579.24,983.781 669.720,949.178 727.0,878.0 C771.465,822.744 803.745,765.57 823.999,684.0 C864.341,522.554 796.211,331.678 711.0,263.0 C658.724,220.867 606.356,186.502 530.0,167.0 C437.761,143.441 285.522,154.899 173.0,155.0 ZM1013.999,155.0 C1013.999,267.322 1013.999,379.677 1013.999,491.999 C1101.657,491.999 1189.342,491.999 1276.999,491.999 C1333.46,492.3 1391.247,494.648 1431.0,478.999 C1489.870,455.825 1519.762,410.665 1531.0,339.0 C1535.878,307.891 1526.296,276.32 1517.999,256.0 C1474.755,151.579 1388.296,154.996 1242.999,155.0 C1166.674,155.0 1090.325,155.0 1013.999,155.0 ZM1013.999,644.999 C1013.999,764.988 1013.999,885.11 1013.999,1004.999 C1093.658,1004.999 1173.341,1004.999 1252.999,1004.999 C1407.913,1005.8 1502.497,1006.636 1542.999,890.0 C1550.358,868.810 1558.151,834.594 1553.0,803.0 C1539.885,722.564 1497.503,674.610 1425.999,653.0 C1386.111,640.944 1328.737,644.998 1277.999,644.999 C1190.8,644.999 1101.991,644.999 1013.999,644.999 Z"/>
</svg>