<svg 
 xmlns="http://www.w3.org/2000/svg"
 xmlns:xlink="http://www.w3.org/1999/xlink"
 width="1943px" height="1884px">
<path fill-rule="evenodd"  fill="rgb(255, 255, 255)"
 d="M971.500,0.0 C1508.44,0.0 1942.999,421.747 1942.999,941.999 C1942.999,1462.252 1508.44,1883.999 971.500,1883.999 C434.955,1883.999 0.0,1462.252 0.0,941.999 C0.0,421.747 434.955,0.0 971.500,0.0 Z"/>
<path fill-rule="evenodd"  fill="rgb(0, 0, 0)"
 d="M297.999,487.0 C386.991,487.0 476.8,487.0 565.0,487.0 C628.988,486.991 692.526,484.792 743.0,498.999 C799.311,514.851 848.169,533.334 892.0,560.999 C909.778,572.221 924.652,587.641 941.0,600.0 C965.177,618.277 984.258,642.246 1001.999,666.999 C1008.434,675.977 1018.715,685.372 1021.999,696.999 C1022.333,696.999 1022.666,696.999 1022.999,696.999 C1022.999,627.7 1022.999,556.993 1022.999,487.0 C1131.322,487.0 1239.677,487.0 1348.0,487.0 C1377.330,487.0 1406.669,487.0 1435.999,487.0 C1453.55,486.999 1472.933,485.874 1486.999,489.0 C1496.960,491.213 1504.606,489.512 1514.0,491.999 C1540.482,499.12 1567.784,506.78 1588.999,519.0 C1603.841,528.39 1617.377,538.716 1630.999,549.0 C1642.667,557.807 1651.505,571.885 1659.999,583.999 C1692.149,629.850 1716.101,713.680 1692.0,788.0 C1670.493,854.317 1619.947,912.704 1548.0,928.0 C1548.0,928.333 1548.0,928.666 1548.0,928.999 C1578.255,930.68 1603.959,948.323 1623.0,961.999 C1662.24,990.31 1691.369,1029.813 1708.0,1080.0 C1711.774,1091.389 1712.12,1101.423 1714.999,1113.999 C1720.209,1135.926 1720.458,1180.673 1714.999,1202.999 C1702.518,1254.52 1688.909,1282.293 1661.999,1317.999 C1656.436,1325.382 1647.461,1332.397 1640.0,1338.0 C1632.322,1343.764 1625.157,1351.588 1617.0,1356.999 C1586.363,1377.323 1550.33,1386.347 1508.0,1395.999 C1491.223,1399.852 1471.159,1397.999 1451.999,1398.0 C1418.336,1398.0 1384.663,1398.0 1351.0,1398.0 C1241.677,1398.0 1132.322,1398.0 1022.999,1398.0 C1022.999,1328.673 1022.999,1259.326 1022.999,1189.999 C1022.666,1189.999 1022.333,1189.999 1021.999,1189.999 C1021.999,1190.333 1021.999,1190.666 1021.999,1191.0 C1017.229,1195.985 1015.20,1203.257 1011.0,1209.0 C1001.354,1222.777 990.149,1235.554 980.0,1248.999 C972.131,1259.423 960.494,1270.72 949.999,1278.0 C942.539,1283.635 936.555,1292.350 929.0,1297.999 C906.990,1314.456 883.790,1330.527 858.999,1343.999 C824.839,1362.564 785.202,1374.963 744.0,1385.999 C724.1,1389.332 703.997,1392.666 683.999,1395.999 C676.0,1396.333 667.999,1396.666 660.0,1396.999 C650.449,1399.75 636.246,1397.999 625.0,1398.0 C602.2,1398.0 578.997,1398.0 556.0,1398.0 C470.8,1398.0 383.991,1398.0 297.999,1398.0 C297.999,1094.363 297.999,790.636 297.999,487.0 ZM433.999,608.0 C433.999,830.977 433.999,1054.22 433.999,1276.999 C486.661,1276.999 539.338,1276.999 591.999,1276.999 C627.441,1277.5 665.19,1278.662 694.0,1270.999 C709.787,1266.825 726.864,1263.715 741.999,1257.999 C800.547,1235.889 850.580,1200.310 883.999,1152.999 C904.140,1124.488 919.902,1091.397 931.999,1055.0 C937.804,1037.535 939.560,1018.397 944.0,1000.0 C944.333,994.0 944.666,987.999 945.0,981.999 C948.593,965.543 949.835,931.942 946.0,915.0 C945.666,907.334 945.333,899.665 945.0,892.0 C942.24,879.228 941.680,864.983 937.999,852.0 C925.96,806.486 909.702,768.667 886.0,735.0 C876.605,721.655 864.667,702.592 852.0,693.0 C839.8,683.163 827.427,671.374 813.999,662.0 C788.499,644.196 757.319,631.597 724.999,620.999 C686.162,608.265 639.182,608.1 588.0,608.0 C536.671,608.0 485.328,608.0 433.999,608.0 ZM1160.0,608.0 C1160.0,668.993 1160.0,730.6 1160.0,790.999 C1160.0,809.998 1160.0,829.1 1160.0,848.0 C1159.999,855.931 1161.53,866.755 1159.0,873.0 C1250.657,873.0 1342.342,873.0 1433.999,873.0 C1439.318,869.811 1462.418,869.465 1469.999,866.999 C1493.795,859.262 1518.490,846.186 1532.0,827.999 C1543.749,812.182 1552.261,793.935 1557.999,772.0 C1566.885,738.34 1557.222,695.751 1544.0,673.999 C1523.591,640.427 1504.29,624.937 1463.0,611.999 C1435.928,603.463 1394.211,607.999 1360.999,608.0 C1294.6,608.0 1226.993,608.0 1160.0,608.0 ZM1160.0,995.0 C1160.0,1088.990 1160.0,1183.9 1160.0,1276.999 C1229.992,1276.999 1300.6,1276.999 1370.0,1276.999 C1413.103,1277.1 1459.275,1279.640 1491.0,1267.999 C1518.966,1257.738 1539.658,1241.70 1554.999,1217.999 C1562.970,1206.14 1569.627,1191.796 1573.999,1175.999 C1576.372,1167.429 1574.955,1160.422 1576.999,1150.999 C1578.529,1143.952 1579.892,1128.605 1577.999,1119.999 C1575.507,1108.666 1574.829,1096.458 1570.999,1085.999 C1558.831,1052.766 1535.197,1024.103 1503.999,1009.999 C1467.905,993.683 1422.290,994.999 1369.0,995.0 C1299.340,995.0 1229.659,995.0 1160.0,995.0 Z"/>
</svg>